<svg id="Layer_1" enable-background="new 0 0 512 512" height="512" viewBox="0 0 512 512" width="512" xmlns="http://www.w3.org/2000/svg"><g><path d="m202.01 30c-4.142 0-7.5 3.358-7.5 7.5s3.358 7.5 7.5 7.5 7.5-3.358 7.5-7.5-3.358-7.5-7.5-7.5zm272.49 13.04h-67.01v-23.54c0-10.752-8.748-19.5-19.5-19.5h-263.98c-10.752 0-19.5 8.748-19.5 19.5v23.54h-67.01c-20.678 0-37.5 16.822-37.5 37.5v282.42c0 15.739 9.497 29.196 23.339 34.763l-17.811 30.85c-11.322 19.305-4.482 45.007 15.086 56.305 19.436 11.221 44.821 4.802 56.305-15.086l40.028-69.331h95.937l-5.712 42.455h-8.357c-6.941 0-13.083 4.671-14.937 11.357l-10.562 38.085c-1.307 4.707-.359 9.637 2.597 13.525s7.454 6.117 12.339 6.117h135.496c4.885 0 9.383-2.23 12.339-6.118s3.903-8.818 2.598-13.524l-10.563-38.084c-1.854-6.688-7.995-11.359-14.937-11.359h-8.357l-5.712-42.455h175.384c20.678 0 37.5-16.822 37.5-37.5v-282.42c0-20.678-16.822-37.5-37.5-37.5zm-67.01 45h59.51v252.42h-59.51zm-287.98-68.54c0-2.481 2.019-4.5 4.5-4.5h263.98c2.481 0 4.5 2.019 4.5 4.5v40.5h-272.98zm60.815 89.095c54.95 0 99.655 44.706 99.655 99.656s-44.705 99.655-99.655 99.655c-63.764 0-111.598-59.673-97.087-122.195.937-4.035-1.575-8.065-5.61-9.001s-8.064 1.576-9.001 5.611c-9.187 39.579 4.049 81.882 32.672 108.927l-13.496 23.371c-8.877-1.566-18.082 2.7-22.579 10.556l-8.824 15.285h-11.4v-252.42h59.51v34.185c-8.199 7.26-15.444 15.767-21.457 25.379-2.196 3.511-1.131 8.139 2.381 10.336 3.511 2.196 8.14 1.131 10.336-2.381 18.271-29.219 49.653-46.964 84.555-46.964zm-46.674 204.373-11.504 19.923-20.679-11.939 11.525-19.958c6.418 4.671 13.335 8.697 20.658 11.974zm-118.651 49.992v-282.42c0-12.407 10.094-22.5 22.5-22.5h67.01v15h-63.01c-6.341 0-11.5 5.159-11.5 11.5v259.42c0 6.341 5.159 11.5 11.5 11.5h6.24l-16.755 29.021c-9.25-2.826-15.985-11.527-15.985-21.521zm108.626-4.067s-59.556 103.153-59.697 103.398c-7.228 12.52-23.294 16.824-35.814 9.596-12.39-7.153-16.786-23.5-9.596-35.814l59.696-103.398c1.817-3.189 6.049-4.361 9.213-2.506.014.008.027.018.041.027.022.013.046.021.069.034l33.519 19.353c.029.017.054.037.083.053.013.007.026.012.039.019 3.21 1.879 4.308 6.013 2.447 9.238zm189.56 99.022c.224 0 .422.15.481.365v.001l10.563 38.086c.095.241-.222.661-.482.633h-135.496c-.261.027-.58-.388-.481-.634l10.563-38.087c.06-.215.258-.365.481-.365h114.371zm-90.88-15 5.712-42.455h55.963l5.712 42.455zm274.694-79.955c0 12.407-10.094 22.5-22.5 22.5h-348.893l11.009-19.068c1.99-3.447 2.914-7.215 2.895-10.932h181.243c4.143 0 7.5-3.358 7.5-7.5s-3.357-7.5-7.5-7.5h-185.656l12.831-22.221c10.278 3.033 21.149 4.668 32.396 4.668 63.221 0 114.655-51.434 114.655-114.655 0-63.222-51.435-114.656-114.655-114.656-21.975 0-42.908 6.18-60.815 17.412v-36.008h272.98v265.46h-36.736c-4.143 0-7.5 3.358-7.5 7.5s3.357 7.5 7.5 7.5h114.746c6.341 0 11.5-5.159 11.5-11.5v-259.42c0-6.341-5.159-11.5-11.5-11.5h-63.01v-15h67.01c12.406 0 22.5 10.093 22.5 22.5zm-354.99-332.96c-4.142 0-7.5 3.358-7.5 7.5s3.358 7.5 7.5 7.5 7.5-3.358 7.5-7.5-3.358-7.5-7.5-7.5zm30 0c-4.142 0-7.5 3.358-7.5 7.5s3.358 7.5 7.5 7.5 7.5-3.358 7.5-7.5-3.358-7.5-7.5-7.5zm197.98 125.231h-57.99c-4.143 0-7.5 3.358-7.5 7.5s3.357 7.5 7.5 7.5h57.99c4.143 0 7.5-3.358 7.5-7.5s-3.357-7.5-7.5-7.5zm0 45h-50.99c-4.143 0-7.5 3.358-7.5 7.5s3.357 7.5 7.5 7.5h50.99c4.143 0 7.5-3.358 7.5-7.5s-3.357-7.5-7.5-7.5zm-189.665 81.772c40.667 0 73.752-33.085 73.752-73.751 0-40.667-33.085-73.752-73.752-73.752-40.668 0-73.753 33.085-73.753 73.752 0 40.666 33.085 73.751 73.753 73.751zm0-132.504c32.396 0 58.752 26.356 58.752 58.752s-26.356 58.751-58.752 58.751-58.753-26.356-58.753-58.751c0-32.396 26.357-58.752 58.753-58.752zm189.665 95.732h-58.99c-4.143 0-7.5 3.358-7.5 7.5s3.357 7.5 7.5 7.5h58.99c4.143 0 7.5-3.358 7.5-7.5s-3.357-7.5-7.5-7.5zm7.5-127.5c0-4.142-3.357-7.5-7.5-7.5h-85.48c-4.143 0-7.5 3.358-7.5 7.5s3.357 7.5 7.5 7.5h85.48c4.143 0 7.5-3.358 7.5-7.5zm0 180c0-4.142-3.357-7.5-7.5-7.5h-85.48c-4.143 0-7.5 3.358-7.5 7.5s3.357 7.5 7.5 7.5h85.48c4.143 0 7.5-3.358 7.5-7.5z"/></g></svg>